<svg width="32" height="32" viewBox="0 0 32 32" fill="none" xmlns="http://www.w3.org/2000/svg">
  <!-- Cloud icon for Cloudmart favicon -->
  <path 
    d="M8 16C8 12.134 11.134 9 15 9C18.866 9 22 12.134 22 16C22 19.866 18.866 23 15 23C11.134 23 8 19.866 8 16Z
       M22 16C22 19.866 18.866 23 15 23C11.134 23 8 19.866 8 16C8 12.134 11.134 9 15 9C18.866 9 22 12.134 22 16Z
       M10 14C10 12.896 10.896 12 12 12C13.104 12 14 12.896 14 14C14 15.104 13.104 16 12 16C10.896 16 10 15.104 10 14Z
       M18 14C18 12.896 18.896 12 20 12C21.104 12 22 12.896 22 14C22 15.104 21.104 16 20 16C18.896 16 18 15.104 18 14Z
       M15 11C15 9.896 15.896 9 17 9C18.104 9 19 9.896 19 10C19 11.104 18.104 12 17 12C15.896 12 15 11.104 15 11Z"
    fill="#3B82F6"
    stroke="#3B82F6"
    stroke-width="0.5"
    stroke-linecap="round"
    stroke-linejoin="round"
  />
</svg>
